<svg width="32" height="32" viewBox="0 0 32 32" fill="none" xmlns="http://www.w3.org/2000/svg">
    <rect width="32" height="32" rx="8" fill="#000000"/>
    <path d="M8.459 12.208c.746.606 1.026.56 2.428.466l13.215-.793c.28 0 .047-.28-.046-.326l-2.196-1.587c-.42-.326-.981-.7-2.055-.607l-12.795.934c-.466.046-.56.28-.374.466zm.793 3.08v13.904c0 .747.373 1.027 1.214.98l14.523-.84c.841-.046.935-.56.935-1.167v-13.811c0-.606-.233-.933-.748-.887l-15.177.887c-.56.047-.747.327-.747.933z" fill="white"/>
</svg> 