<svg width="1200" height="800" viewBox="0 0 1200 800" fill="none" xmlns="http://www.w3.org/2000/svg">
    <!-- Background -->
    <rect width="1200" height="800" fill="#FFFFFF"/>
    
    <!-- Sidebar -->
    <rect x="0" y="0" width="240" height="800" fill="#F7F6F3"/>
    <rect x="20" y="20" width="200" height="24" rx="4" fill="#EBEAE7"/>
    <rect x="20" y="60" width="180" height="20" rx="4" fill="#EBEAE7"/>
    <rect x="20" y="90" width="160" height="20" rx="4" fill="#EBEAE7"/>
    <rect x="20" y="120" width="190" height="20" rx="4" fill="#EBEAE7"/>
    
    <!-- Main Content -->
    <rect x="280" y="20" width="880" height="40" rx="4" fill="#F7F6F3"/>
    <rect x="280" y="80" width="400" height="24" rx="4" fill="#333333"/>
    <rect x="280" y="120" width="600" height="20" rx="4" fill="#787774"/>
    
    <!-- Content Blocks -->
    <rect x="280" y="180" width="880" height="120" rx="8" fill="#F7F6F3"/>
    <rect x="300" y="200" width="200" height="20" rx="4" fill="#333333"/>
    <rect x="300" y="240" width="400" height="16" rx="4" fill="#787774"/>
    
    <rect x="280" y="320" width="420" height="200" rx="8" fill="#F7F6F3"/>
    <rect x="760" y="320" width="400" height="200" rx="8" fill="#F7F6F3"/>
    
    <!-- Bottom Content -->
    <rect x="280" y="540" width="880" height="160" rx="8" fill="#F7F6F3"/>
    <rect x="300" y="560" width="300" height="20" rx="4" fill="#333333"/>
    <rect x="300" y="600" width="800" height="16" rx="4" fill="#787774"/>
    <rect x="300" y="626" width="700" height="16" rx="4" fill="#787774"/>
    <rect x="300" y="652" width="750" height="16" rx="4" fill="#787774"/>
</svg> 