<svg width="100" height="24" viewBox="0 0 100 24" fill="none" xmlns="http://www.w3.org/2000/svg">
    <path d="M48.1 12c0 6.627-5.373 12-12 12s-12-5.373-12-12 5.373-12 12-12 12 5.373 12 12zm-5.5 0c0-3.59-2.91-6.5-6.5-6.5s-6.5 2.91-6.5 6.5 2.91 6.5 6.5 6.5 6.5-2.91 6.5-6.5z" fill="#000"/>
    <path d="M75.1 12c0 6.627-5.373 12-12 12s-12-5.373-12-12 5.373-12 12-12 12 5.373 12 12zm-5.5 0c0-3.59-2.91-6.5-6.5-6.5s-6.5 2.91-6.5 6.5 2.91 6.5 6.5 6.5 6.5-2.91 6.5-6.5z" fill="#000"/>
    <path d="M36.1 12c0 3.314-2.686 6-6 6-3.314 0-6-2.686-6-6 0-3.314 2.686-6 6-6 3.314 0 6 2.686 6 6z" fill="#000"/>
</svg> 