<svg width="100" height="24" viewBox="0 0 100 24" fill="none" xmlns="http://www.w3.org/2000/svg">
    <path d="M12 2L2 22h20L12 2z" fill="#000"/>
    <path d="M35.7 19h2.1v-4.8l4.3-6.2h-2.4l-2.9 4.4-2.9-4.4h-2.4l4.3 6.2V19zm11.9.2c2.9 0 4.7-1.8 4.7-4.5s-1.8-4.5-4.7-4.5-4.7 1.8-4.7 4.5 1.8 4.5 4.7 4.5zm0-1.8c-1.5 0-2.5-1.1-2.5-2.7s1-2.7 2.5-2.7 2.5 1.1 2.5 2.7-1 2.7-2.5 2.7zm11.8 1.8c2.9 0 4.7-1.8 4.7-4.5s-1.8-4.5-4.7-4.5-4.7 1.8-4.7 4.5 1.8 4.5 4.7 4.5zm0-1.8c-1.5 0-2.5-1.1-2.5-2.7s1-2.7 2.5-2.7 2.5 1.1 2.5 2.7-1 2.7-2.5 2.7z" fill="#000"/>
</svg>