<svg width="1200" height="800" viewBox="0 0 1200 800" fill="none" xmlns="http://www.w3.org/2000/svg">
    <!-- Background -->
    <rect width="1200" height="800" fill="#FFFFFF"/>
    
    <!-- Left Sidebar -->
    <rect x="0" y="0" width="250" height="800" fill="#F7F6F3"/>
    <rect x="24" y="24" width="202" height="32" rx="6" fill="#EBEAE7"/>
    <rect x="24" y="80" width="180" height="24" rx="4" fill="#EBEAE7"/>
    <rect x="24" y="120" width="160" height="24" rx="4" fill="#EBEAE7"/>
    <rect x="24" y="160" width="190" height="24" rx="4" fill="#EBEAE7"/>
    
    <!-- Main Content Area -->
    <g>
        <!-- Top Bar -->
        <rect x="274" y="24" width="902" height="48" rx="8" fill="#F7F6F3"/>
        <circle cx="298" cy="48" r="12" fill="#0A85D1"/>
        <rect x="322" y="36" width="120" height="24" rx="4" fill="#333333"/>
        <rect x="1076" y="36" width="76" height="24" rx="12" fill="#0A85D1"/>
        
        <!-- Content Grid -->
        <g>
            <!-- Row 1 -->
            <rect x="274" y="96" width="440" height="200" rx="12" fill="#F7F6F3"/>
            <rect x="294" y="116" width="200" height="24" rx="4" fill="#333333"/>
            <rect x="294" y="152" width="400" height="16" rx="4" fill="#787774"/>
            <rect x="294" y="176" width="380" height="16" rx="4" fill="#787774"/>
            
            <rect x="736" y="96" width="440" height="200" rx="12" fill="#F7F6F3"/>
            <rect x="756" y="116" width="180" height="24" rx="4" fill="#333333"/>
            <rect x="756" y="152" width="400" height="16" rx="4" fill="#787774"/>
            
            <!-- Row 2 -->
            <rect x="274" y="320" width="902" height="160" rx="12" fill="#F7F6F3"/>
            <rect x="294" y="340" width="240" height="24" rx="4" fill="#333333"/>
            <rect x="294" y="376" width="862" height="16" rx="4" fill="#787774"/>
            <rect x="294" y="400" width="800" height="16" rx="4" fill="#787774"/>
            <rect x="294" y="424" width="720" height="16" rx="4" fill="#787774"/>
            
            <!-- Row 3 -->
            <rect x="274" y="504" width="440" height="272" rx="12" fill="#F7F6F3"/>
            <rect x="294" y="524" width="180" height="24" rx="4" fill="#333333"/>
            <rect x="294" y="560" width="400" height="16" rx="4" fill="#787774"/>
            <rect x="294" y="584" width="380" height="16" rx="4" fill="#787774"/>
            
            <rect x="736" y="504" width="440" height="272" rx="12" fill="#F7F6F3"/>
            <rect x="756" y="524" width="200" height="24" rx="4" fill="#333333"/>
            <rect x="756" y="560" width="400" height="16" rx="4" fill="#787774"/>
            <rect x="756" y="584" width="380" height="16" rx="4" fill="#787774"/>
        </g>
    </g>
    
    <!-- Decorative Elements -->
    <circle cx="48" cy="48" r="16" fill="#0A85D1" opacity="0.1"/>
    <circle cx="1152" cy="752" r="24" fill="#0A85D1" opacity="0.05"/>
    <circle cx="24" cy="776" r="12" fill="#333333" opacity="0.05"/>
</svg> 